<svg width="206" height="139" viewBox="0 0 206 139" fill="none" xmlns="http://www.w3.org/2000/svg">
<g filter="url(#filter0_d_142_120)">
<rect x="14" y="43.879" width="136.629" height="39.3058" rx="19.6529" fill="#B8B8B8"/>
<ellipse cx="54.5618" cy="40.3058" rx="24.1947" ry="24.2981" fill="#B8B8B8"/>
<ellipse cx="82.3146" cy="25.2981" rx="24.1947" ry="24.2981" fill="#B8B8B8"/>
<ellipse cx="111.491" cy="40.3058" rx="24.1947" ry="24.2981" fill="#B8B8B8"/>
<rect x="67.3707" y="58.8867" width="136.629" height="39.3058" rx="19.6529" fill="#D5D5D5"/>
<ellipse cx="107.933" cy="55.3135" rx="24.1947" ry="24.2981" fill="#D5D5D5"/>
<ellipse cx="135.685" cy="40.3058" rx="24.1947" ry="24.2981" fill="#D5D5D5"/>
<ellipse cx="164.861" cy="55.3135" rx="24.1947" ry="24.2981" fill="#D5D5D5"/>
</g>
<path d="M30.4877 91L18 117.78" stroke="#5DA2E1" stroke-width="8" stroke-linecap="round"/>
<path d="M80.4559 107.41L68 134.205" stroke="#5DA2E1" stroke-width="8" stroke-linecap="round"/>
<path d="M185.456 107L173 133.795" stroke="#5DA2E1" stroke-width="8" stroke-linecap="round"/>
<path d="M58.4877 93L46 119.78" stroke="#5DA2E1" stroke-width="8" stroke-linecap="round"/>
<path d="M115.456 107L103 133.795" stroke="#5DA2E1" stroke-width="8" stroke-linecap="round"/>
<path d="M150.456 107L138 133.795" stroke="#5DA2E1" stroke-width="8" stroke-linecap="round"/>
<defs>
<filter id="filter0_d_142_120" x="0" y="0" width="206" height="113.193" filterUnits="userSpaceOnUse" color-interpolation-filters="sRGB">
<feFlood flood-opacity="0" result="BackgroundImageFix"/>
<feColorMatrix in="SourceAlpha" type="matrix" values="0 0 0 0 0 0 0 0 0 0 0 0 0 0 0 0 0 0 127 0" result="hardAlpha"/>
<feOffset dx="-6" dy="7"/>
<feGaussianBlur stdDeviation="4"/>
<feComposite in2="hardAlpha" operator="out"/>
<feColorMatrix type="matrix" values="0 0 0 0 0 0 0 0 0 0 0 0 0 0 0 0 0 0 0.11 0"/>
<feBlend mode="normal" in2="BackgroundImageFix" result="effect1_dropShadow_142_120"/>
<feBlend mode="normal" in="SourceGraphic" in2="effect1_dropShadow_142_120" result="shape"/>
</filter>
</defs>
</svg>
