<svg width="206" height="141" viewBox="0 0 206 141" fill="none" xmlns="http://www.w3.org/2000/svg">
<line x1="4" y1="-4" x2="33.138" y2="-4" transform="matrix(0.999955 -0.00952297 0.0103256 0.999947 36 119.878)" stroke="#85D2D7" stroke-opacity="0.67" stroke-width="8" stroke-linecap="round"/>
<line x1="4" y1="-4" x2="31.6655" y2="-4" transform="matrix(0.00860461 -0.999963 0.999969 0.00793573 58.499 134)" stroke="#85D2D7" stroke-opacity="0.67" stroke-width="8" stroke-linecap="round"/>
<line x1="4" y1="-4" x2="25.0267" y2="-4" transform="matrix(0.726956 -0.686684 0.715518 0.698594 46.7235 129.041)" stroke="#85D2D7" stroke-opacity="0.67" stroke-width="8" stroke-linecap="round"/>
<line x1="4" y1="-4" x2="25.9431" y2="-4" transform="matrix(-0.715518 -0.698594 0.726956 -0.686684 68.3715 124.025)" stroke="#85D2D7" stroke-opacity="0.67" stroke-width="8" stroke-linecap="round"/>
<line x1="4" y1="-4" x2="32.7125" y2="-4" transform="matrix(-0.850489 0.525992 -0.556954 -0.830543 113.36 94.5981)" stroke="#85D2D7" stroke-opacity="0.67" stroke-width="8" stroke-linecap="round"/>
<line x1="4" y1="-4" x2="32.0789" y2="-4" transform="matrix(0.541506 0.840697 -0.859745 0.510724 86.4854 94.1682)" stroke="#85D2D7" stroke-opacity="0.67" stroke-width="8" stroke-linecap="round"/>
<line x1="4" y1="-4" x2="24.4872" y2="-4" transform="matrix(-0.238318 0.971187 -0.975335 -0.22073 99.201 92.3359)" stroke="#85D2D7" stroke-opacity="0.67" stroke-width="8" stroke-linecap="round"/>
<line x1="4" y1="-4" x2="26.4902" y2="-4" transform="matrix(0.975335 0.22073 -0.238318 0.971187 83.6693 107.661)" stroke="#85D2D7" stroke-opacity="0.67" stroke-width="8" stroke-linecap="round"/>
<path d="M177.456 110L165 136.795" stroke="#5DA2E1" stroke-width="8" stroke-linecap="round"/>
<path d="M106.456 110L94 136.795" stroke="#5DA2E1" stroke-width="8" stroke-linecap="round"/>
<path d="M141.456 110L129 136.795" stroke="#5DA2E1" stroke-width="8" stroke-linecap="round"/>
<g filter="url(#filter0_d_144_179)">
<rect x="14" y="43.8792" width="136.629" height="39.3058" rx="19.6529" fill="#B8B8B8"/>
<ellipse cx="54.5618" cy="40.3057" rx="24.1947" ry="24.2981" fill="#B8B8B8"/>
<ellipse cx="82.3146" cy="25.2981" rx="24.1947" ry="24.2981" fill="#B8B8B8"/>
<ellipse cx="111.491" cy="40.3057" rx="24.1947" ry="24.2981" fill="#B8B8B8"/>
<rect x="67.3707" y="58.8867" width="136.629" height="39.3058" rx="19.6529" fill="#D5D5D5"/>
<ellipse cx="107.933" cy="55.3135" rx="24.1947" ry="24.2981" fill="#D5D5D5"/>
<ellipse cx="135.685" cy="40.3057" rx="24.1947" ry="24.2981" fill="#D5D5D5"/>
<ellipse cx="164.861" cy="55.3135" rx="24.1947" ry="24.2981" fill="#D5D5D5"/>
</g>
<defs>
<filter id="filter0_d_144_179" x="0" y="0" width="206" height="113.193" filterUnits="userSpaceOnUse" color-interpolation-filters="sRGB">
<feFlood flood-opacity="0" result="BackgroundImageFix"/>
<feColorMatrix in="SourceAlpha" type="matrix" values="0 0 0 0 0 0 0 0 0 0 0 0 0 0 0 0 0 0 127 0" result="hardAlpha"/>
<feOffset dx="-6" dy="7"/>
<feGaussianBlur stdDeviation="4"/>
<feComposite in2="hardAlpha" operator="out"/>
<feColorMatrix type="matrix" values="0 0 0 0 0 0 0 0 0 0 0 0 0 0 0 0 0 0 0.11 0"/>
<feBlend mode="normal" in2="BackgroundImageFix" result="effect1_dropShadow_144_179"/>
<feBlend mode="normal" in="SourceGraphic" in2="effect1_dropShadow_144_179" result="shape"/>
</filter>
</defs>
</svg>
