<svg width="216" height="166" viewBox="0 0 216 166" fill="none" xmlns="http://www.w3.org/2000/svg">
<g filter="url(#filter0_d_144_179)">
<line x1="4" y1="-4" x2="33.138" y2="-4" transform="matrix(0.999955 -0.00952297 0.0103256 0.999947 35 127.878)" stroke="#85D2D7" stroke-opacity="0.67" stroke-width="8" stroke-linecap="round"/>
<line x1="4" y1="-4" x2="31.6655" y2="-4" transform="matrix(0.00860461 -0.999963 0.999969 0.00793573 57.499 142)" stroke="#85D2D7" stroke-opacity="0.67" stroke-width="8" stroke-linecap="round"/>
<line x1="4" y1="-4" x2="25.0267" y2="-4" transform="matrix(0.726956 -0.686684 0.715518 0.698594 45.7235 137.041)" stroke="#85D2D7" stroke-opacity="0.67" stroke-width="8" stroke-linecap="round"/>
<line x1="4" y1="-4" x2="25.9431" y2="-4" transform="matrix(-0.715518 -0.698594 0.726956 -0.686684 67.3715 132.025)" stroke="#85D2D7" stroke-opacity="0.67" stroke-width="8" stroke-linecap="round"/>
<line x1="4" y1="-4" x2="32.7125" y2="-4" transform="matrix(-0.850489 0.525992 -0.556954 -0.830543 112.36 102.598)" stroke="#85D2D7" stroke-opacity="0.67" stroke-width="8" stroke-linecap="round"/>
<line x1="4" y1="-4" x2="32.0789" y2="-4" transform="matrix(0.541506 0.840697 -0.859745 0.510724 85.4854 102.168)" stroke="#85D2D7" stroke-opacity="0.67" stroke-width="8" stroke-linecap="round"/>
<line x1="4" y1="-4" x2="24.4872" y2="-4" transform="matrix(-0.238318 0.971187 -0.975335 -0.22073 98.201 100.336)" stroke="#85D2D7" stroke-opacity="0.67" stroke-width="8" stroke-linecap="round"/>
<line x1="4" y1="-4" x2="26.4902" y2="-4" transform="matrix(0.975335 0.22073 -0.238318 0.971187 82.6693 115.661)" stroke="#85D2D7" stroke-opacity="0.67" stroke-width="8" stroke-linecap="round"/>
<path d="M176.456 118L164 144.795" stroke="#5DA2E1" stroke-width="8" stroke-linecap="round"/>
<path d="M105.456 118L93 144.795" stroke="#5DA2E1" stroke-width="8" stroke-linecap="round"/>
<path d="M140.456 118L128 144.795" stroke="#5DA2E1" stroke-width="8" stroke-linecap="round"/>
<rect x="13" y="51.8792" width="136.629" height="39.3058" rx="19.6529" fill="#B8B8B8"/>
<ellipse cx="53.5618" cy="48.3057" rx="24.1947" ry="24.2981" fill="#B8B8B8"/>
<ellipse cx="81.3146" cy="33.2981" rx="24.1947" ry="24.2981" fill="#B8B8B8"/>
<ellipse cx="110.491" cy="48.3057" rx="24.1947" ry="24.2981" fill="#B8B8B8"/>
<rect x="66.3707" y="66.8867" width="136.629" height="39.3058" rx="19.6529" fill="#D5D5D5"/>
<ellipse cx="106.933" cy="63.3135" rx="24.1947" ry="24.2981" fill="#D5D5D5"/>
<ellipse cx="134.685" cy="48.3057" rx="24.1947" ry="24.2981" fill="#D5D5D5"/>
<ellipse cx="163.861" cy="63.3135" rx="24.1947" ry="24.2981" fill="#D5D5D5"/>
</g>
<defs>
<filter id="filter0_d_144_179" x="0" y="0" width="216" height="165.796" filterUnits="userSpaceOnUse" color-interpolation-filters="sRGB">
<feFlood flood-opacity="0" result="BackgroundImageFix"/>
<feColorMatrix in="SourceAlpha" type="matrix" values="0 0 0 0 0 0 0 0 0 0 0 0 0 0 0 0 0 0 127 0" result="hardAlpha"/>
<feOffset dy="4"/>
<feGaussianBlur stdDeviation="6.5"/>
<feComposite in2="hardAlpha" operator="out"/>
<feColorMatrix type="matrix" values="0 0 0 0 0 0 0 0 0 0 0 0 0 0 0 0 0 0 0.25 0"/>
<feBlend mode="normal" in2="BackgroundImageFix" result="effect1_dropShadow_144_179"/>
<feBlend mode="normal" in="SourceGraphic" in2="effect1_dropShadow_144_179" result="shape"/>
</filter>
</defs>
</svg>
