<svg width="216" height="202" viewBox="0 0 216 202" fill="none" xmlns="http://www.w3.org/2000/svg">
<g filter="url(#filter0_d_136_17)">
<rect x="13" y="51.879" width="136.629" height="39.3058" rx="19.6529" fill="#B8B8B8"/>
<ellipse cx="53.5618" cy="48.3058" rx="24.1947" ry="24.2981" fill="#B8B8B8"/>
<ellipse cx="81.3146" cy="33.2981" rx="24.1947" ry="24.2981" fill="#B8B8B8"/>
<ellipse cx="110.491" cy="48.3058" rx="24.1947" ry="24.2981" fill="#B8B8B8"/>
<rect x="66.3707" y="66.8867" width="136.629" height="39.3058" rx="19.6529" fill="#D5D5D5"/>
<ellipse cx="106.933" cy="63.3135" rx="24.1947" ry="24.2981" fill="#D5D5D5"/>
<ellipse cx="134.685" cy="48.3058" rx="24.1947" ry="24.2981" fill="#D5D5D5"/>
<ellipse cx="163.861" cy="63.3135" rx="24.1947" ry="24.2981" fill="#D5D5D5"/>
<line x1="4" y1="-4" x2="33.138" y2="-4" transform="matrix(0.999955 -0.00952297 0.0103256 0.999947 24.4574 120.4)" stroke="#75D2D8" stroke-width="8" stroke-linecap="round"/>
<line x1="4" y1="-4" x2="31.7379" y2="-4" transform="matrix(0.228369 0.973575 -0.977391 0.211441 87.5746 116.279)" stroke="#75D2D8" stroke-width="8" stroke-linecap="round"/>
<line x1="4" y1="-4" x2="32.1764" y2="-4" transform="matrix(-0.600745 0.799441 -0.821911 -0.569616 170.898 116.279)" stroke="#75D2D8" stroke-width="8" stroke-linecap="round"/>
<line x1="4" y1="-4" x2="32.8017" y2="-4" transform="matrix(-0.884374 0.466779 -0.496708 -0.867918 81.4888 156.246)" stroke="#75D2D8" stroke-width="8" stroke-linecap="round"/>
<line x1="4" y1="-4" x2="32.7125" y2="-4" transform="matrix(-0.850489 0.525992 -0.556954 -0.830543 149.249 155.217)" stroke="#75D2D8" stroke-width="8" stroke-linecap="round"/>
<line x1="4" y1="-4" x2="31.6655" y2="-4" transform="matrix(0.00860461 -0.999963 0.999969 0.00793573 46.9564 134.521)" stroke="#75D2D8" stroke-width="8" stroke-linecap="round"/>
<line x1="4" y1="-4" x2="33.0792" y2="-4" transform="matrix(0.980945 -0.194286 0.209968 0.977708 77.9247 140.37)" stroke="#75D2D8" stroke-width="8" stroke-linecap="round"/>
<line x1="4" y1="-4" x2="32.615" y2="-4" transform="matrix(0.811555 0.584275 -0.615341 0.788261 145.714 125.296)" stroke="#75D2D8" stroke-width="8" stroke-linecap="round"/>
<line x1="4" y1="-4" x2="31.9898" y2="-4" transform="matrix(0.480498 0.876996 -0.892528 0.450992 54.7106 154.022)" stroke="#75D2D8" stroke-width="8" stroke-linecap="round"/>
<line x1="4" y1="-4" x2="32.0789" y2="-4" transform="matrix(0.541506 0.840697 -0.859745 0.510724 122.374 154.787)" stroke="#75D2D8" stroke-width="8" stroke-linecap="round"/>
<line x1="4" y1="-4" x2="25.0267" y2="-4" transform="matrix(0.726956 -0.686684 0.715518 0.698594 35.1809 129.562)" stroke="#75D2D8" stroke-width="8" stroke-linecap="round"/>
<line x1="4" y1="-4" x2="25.2483" y2="-4" transform="matrix(0.845347 0.534217 -0.565251 0.824919 80.4996 128.272)" stroke="#75D2D8" stroke-width="8" stroke-linecap="round"/>
<line x1="4" y1="-4" x2="24.4483" y2="-4" transform="matrix(0.147351 0.989084 -0.990693 0.136117 156.856 119.134)" stroke="#75D2D8" stroke-width="8" stroke-linecap="round"/>
<line x1="4" y1="-4" x2="24.5294" y2="-4" transform="matrix(-0.30762 0.951509 -0.958309 -0.285733 67.5281 153.043)" stroke="#75D2D8" stroke-width="8" stroke-linecap="round"/>
<line x1="4" y1="-4" x2="24.4872" y2="-4" transform="matrix(-0.238318 0.971187 -0.975335 -0.22073 135.09 152.955)" stroke="#75D2D8" stroke-width="8" stroke-linecap="round"/>
<line x1="4" y1="-4" x2="25.9431" y2="-4" transform="matrix(-0.715518 -0.698594 0.726956 -0.686684 56.8289 124.547)" stroke="#75D2D8" stroke-width="8" stroke-linecap="round"/>
<line x1="4" y1="-4" x2="25.7125" y2="-4" transform="matrix(0.565251 -0.824919 0.845347 0.534217 90.1531 147.544)" stroke="#75D2D8" stroke-width="8" stroke-linecap="round"/>
<line x1="4" y1="-4" x2="26.5289" y2="-4" transform="matrix(0.990693 -0.136117 0.147351 0.989084 148.219 138.846)" stroke="#75D2D8" stroke-width="8" stroke-linecap="round"/>
<line x1="4" y1="-4" x2="26.4482" y2="-4" transform="matrix(0.958309 0.285733 -0.30762 0.951509 50.9242 167.294)" stroke="#75D2D8" stroke-width="8" stroke-linecap="round"/>
<line x1="4" y1="-4" x2="26.4902" y2="-4" transform="matrix(0.975335 0.22073 -0.238318 0.971187 119.558 168.281)" stroke="#75D2D8" stroke-width="8" stroke-linecap="round"/>
</g>
<defs>
<filter id="filter0_d_136_17" x="0" y="0" width="216" height="201.218" filterUnits="userSpaceOnUse" color-interpolation-filters="sRGB">
<feFlood flood-opacity="0" result="BackgroundImageFix"/>
<feColorMatrix in="SourceAlpha" type="matrix" values="0 0 0 0 0 0 0 0 0 0 0 0 0 0 0 0 0 0 127 0" result="hardAlpha"/>
<feOffset dy="4"/>
<feGaussianBlur stdDeviation="6.5"/>
<feComposite in2="hardAlpha" operator="out"/>
<feColorMatrix type="matrix" values="0 0 0 0 0 0 0 0 0 0 0 0 0 0 0 0 0 0 0.25 0"/>
<feBlend mode="normal" in2="BackgroundImageFix" result="effect1_dropShadow_136_17"/>
<feBlend mode="normal" in="SourceGraphic" in2="effect1_dropShadow_136_17" result="shape"/>
</filter>
</defs>
</svg>
