<svg width="206" height="178" viewBox="0 0 206 178" fill="none" xmlns="http://www.w3.org/2000/svg">
<g filter="url(#filter0_d_136_17)">
<rect x="14" y="43.879" width="136.629" height="39.3058" rx="19.6529" fill="#B8B8B8"/>
<ellipse cx="54.5618" cy="40.3058" rx="24.1947" ry="24.2981" fill="#B8B8B8"/>
<ellipse cx="82.3146" cy="25.2981" rx="24.1947" ry="24.2981" fill="#B8B8B8"/>
<ellipse cx="111.491" cy="40.3058" rx="24.1947" ry="24.2981" fill="#B8B8B8"/>
<rect x="67.3707" y="58.8867" width="136.629" height="39.3058" rx="19.6529" fill="#D5D5D5"/>
<ellipse cx="107.933" cy="55.3135" rx="24.1947" ry="24.2981" fill="#D5D5D5"/>
<ellipse cx="135.685" cy="40.3058" rx="24.1947" ry="24.2981" fill="#D5D5D5"/>
<ellipse cx="164.861" cy="55.3135" rx="24.1947" ry="24.2981" fill="#D5D5D5"/>
</g>
<line x1="4" y1="-4" x2="33.138" y2="-4" transform="matrix(0.999955 -0.00952297 0.0103256 0.999947 25.4574 112.4)" stroke="#85D2D7" stroke-opacity="0.67" stroke-width="8" stroke-linecap="round"/>
<line x1="4" y1="-4" x2="31.7379" y2="-4" transform="matrix(0.228369 0.973575 -0.977391 0.211441 88.5746 108.279)" stroke="#85D2D7" stroke-opacity="0.67" stroke-width="8" stroke-linecap="round"/>
<line x1="4" y1="-4" x2="32.1764" y2="-4" transform="matrix(-0.600745 0.799441 -0.821911 -0.569616 171.898 108.279)" stroke="#85D2D7" stroke-opacity="0.67" stroke-width="8" stroke-linecap="round"/>
<line x1="4" y1="-4" x2="32.8017" y2="-4" transform="matrix(-0.884374 0.466779 -0.496708 -0.867918 82.4888 148.246)" stroke="#85D2D7" stroke-opacity="0.67" stroke-width="8" stroke-linecap="round"/>
<line x1="4" y1="-4" x2="32.7125" y2="-4" transform="matrix(-0.850489 0.525992 -0.556954 -0.830543 150.249 147.217)" stroke="#85D2D7" stroke-opacity="0.67" stroke-width="8" stroke-linecap="round"/>
<line x1="4" y1="-4" x2="31.6655" y2="-4" transform="matrix(0.00860461 -0.999963 0.999969 0.00793573 47.9564 126.521)" stroke="#85D2D7" stroke-opacity="0.67" stroke-width="8" stroke-linecap="round"/>
<line x1="4" y1="-4" x2="33.0792" y2="-4" transform="matrix(0.980945 -0.194286 0.209968 0.977708 78.9247 132.37)" stroke="#85D2D7" stroke-opacity="0.67" stroke-width="8" stroke-linecap="round"/>
<line x1="4" y1="-4" x2="32.615" y2="-4" transform="matrix(0.811555 0.584275 -0.615341 0.788261 146.714 117.296)" stroke="#85D2D7" stroke-opacity="0.67" stroke-width="8" stroke-linecap="round"/>
<line x1="4" y1="-4" x2="31.9898" y2="-4" transform="matrix(0.480498 0.876996 -0.892528 0.450992 55.7106 146.022)" stroke="#85D2D7" stroke-opacity="0.67" stroke-width="8" stroke-linecap="round"/>
<line x1="4" y1="-4" x2="32.0789" y2="-4" transform="matrix(0.541506 0.840697 -0.859745 0.510724 123.374 146.787)" stroke="#85D2D7" stroke-opacity="0.67" stroke-width="8" stroke-linecap="round"/>
<line x1="4" y1="-4" x2="25.0267" y2="-4" transform="matrix(0.726956 -0.686684 0.715518 0.698594 36.1809 121.562)" stroke="#85D2D7" stroke-opacity="0.67" stroke-width="8" stroke-linecap="round"/>
<line x1="4" y1="-4" x2="25.2483" y2="-4" transform="matrix(0.845347 0.534217 -0.565251 0.824919 81.4996 120.272)" stroke="#85D2D7" stroke-opacity="0.67" stroke-width="8" stroke-linecap="round"/>
<line x1="4" y1="-4" x2="24.4483" y2="-4" transform="matrix(0.147351 0.989084 -0.990693 0.136117 157.856 111.134)" stroke="#85D2D7" stroke-opacity="0.67" stroke-width="8" stroke-linecap="round"/>
<line x1="4" y1="-4" x2="24.5294" y2="-4" transform="matrix(-0.30762 0.951509 -0.958309 -0.285733 68.5281 145.043)" stroke="#85D2D7" stroke-opacity="0.67" stroke-width="8" stroke-linecap="round"/>
<line x1="4" y1="-4" x2="24.4872" y2="-4" transform="matrix(-0.238318 0.971187 -0.975335 -0.22073 136.09 144.955)" stroke="#85D2D7" stroke-opacity="0.67" stroke-width="8" stroke-linecap="round"/>
<line x1="4" y1="-4" x2="25.9431" y2="-4" transform="matrix(-0.715518 -0.698594 0.726956 -0.686684 57.8289 116.547)" stroke="#85D2D7" stroke-opacity="0.67" stroke-width="8" stroke-linecap="round"/>
<line x1="4" y1="-4" x2="25.7125" y2="-4" transform="matrix(0.565251 -0.824919 0.845347 0.534217 91.1531 139.544)" stroke="#85D2D7" stroke-opacity="0.67" stroke-width="8" stroke-linecap="round"/>
<line x1="4" y1="-4" x2="26.5289" y2="-4" transform="matrix(0.990693 -0.136117 0.147351 0.989084 149.219 130.846)" stroke="#85D2D7" stroke-opacity="0.67" stroke-width="8" stroke-linecap="round"/>
<line x1="4" y1="-4" x2="26.4482" y2="-4" transform="matrix(0.958309 0.285733 -0.30762 0.951509 51.9242 159.294)" stroke="#85D2D7" stroke-opacity="0.67" stroke-width="8" stroke-linecap="round"/>
<line x1="4" y1="-4" x2="26.4902" y2="-4" transform="matrix(0.975335 0.22073 -0.238318 0.971187 120.558 160.281)" stroke="#85D2D7" stroke-opacity="0.67" stroke-width="8" stroke-linecap="round"/>
<defs>
<filter id="filter0_d_136_17" x="0" y="0" width="206" height="113.193" filterUnits="userSpaceOnUse" color-interpolation-filters="sRGB">
<feFlood flood-opacity="0" result="BackgroundImageFix"/>
<feColorMatrix in="SourceAlpha" type="matrix" values="0 0 0 0 0 0 0 0 0 0 0 0 0 0 0 0 0 0 127 0" result="hardAlpha"/>
<feOffset dx="-6" dy="7"/>
<feGaussianBlur stdDeviation="4"/>
<feComposite in2="hardAlpha" operator="out"/>
<feColorMatrix type="matrix" values="0 0 0 0 0 0 0 0 0 0 0 0 0 0 0 0 0 0 0.11 0"/>
<feBlend mode="normal" in2="BackgroundImageFix" result="effect1_dropShadow_136_17"/>
<feBlend mode="normal" in="SourceGraphic" in2="effect1_dropShadow_136_17" result="shape"/>
</filter>
</defs>
</svg>
