<svg width="166" height="183" viewBox="0 0 166 183" fill="none" xmlns="http://www.w3.org/2000/svg">
<g filter="url(#filter0_d_140_10)">
<circle cx="38" cy="34" r="25" fill="#FFC047"/>
<line x1="4" y1="-4" x2="31.7379" y2="-4" transform="matrix(0.228369 0.973575 -0.977391 0.211441 72.6499 90)" stroke="#75D2D8" stroke-width="8" stroke-linecap="round"/>
<line x1="4" y1="-4" x2="33.0792" y2="-4" transform="matrix(0.980945 -0.194286 0.209968 0.977708 63 114.091)" stroke="#75D2D8" stroke-width="8" stroke-linecap="round"/>
<line x1="4" y1="-4" x2="25.2483" y2="-4" transform="matrix(0.845347 0.534217 -0.565251 0.824919 65.575 101.993)" stroke="#75D2D8" stroke-width="8" stroke-linecap="round"/>
<line x1="4" y1="-4" x2="25.7125" y2="-4" transform="matrix(0.565251 -0.824919 0.845347 0.534217 75.2284 121.265)" stroke="#75D2D8" stroke-width="8" stroke-linecap="round"/>
<line x1="4" y1="-4" x2="32.1764" y2="-4" transform="matrix(-0.600745 0.799441 -0.821911 -0.569616 136.184 106)" stroke="#75D2D8" stroke-width="8" stroke-linecap="round"/>
<line x1="4" y1="-4" x2="32.615" y2="-4" transform="matrix(0.811555 0.584275 -0.615341 0.788261 111 115.018)" stroke="#75D2D8" stroke-width="8" stroke-linecap="round"/>
<line x1="4" y1="-4" x2="24.4483" y2="-4" transform="matrix(0.147351 0.989084 -0.990693 0.136117 122.142 108.856)" stroke="#75D2D8" stroke-width="8" stroke-linecap="round"/>
<line x1="4" y1="-4" x2="26.5289" y2="-4" transform="matrix(0.990693 -0.136117 0.147351 0.989084 113.505 128.567)" stroke="#75D2D8" stroke-width="8" stroke-linecap="round"/>
<line x1="4" y1="-4" x2="32.8017" y2="-4" transform="matrix(-0.61047 0.792039 -0.812424 -0.583066 47.9346 115.913)" stroke="#75D2D8" stroke-width="8" stroke-linecap="round"/>
<line x1="4" y1="-4" x2="31.9898" y2="-4" transform="matrix(0.801452 0.598059 -0.624447 0.781067 22.6534 125.017)" stroke="#75D2D8" stroke-width="8" stroke-linecap="round"/>
<line x1="4" y1="-4" x2="24.5294" y2="-4" transform="matrix(0.115548 0.993302 -0.990393 0.138281 33.9054 118.801)" stroke="#75D2D8" stroke-width="8" stroke-linecap="round"/>
<line x1="4" y1="-4" x2="26.4482" y2="-4" transform="matrix(0.990393 -0.138281 0.115548 0.993302 24.724 138.662)" stroke="#75D2D8" stroke-width="8" stroke-linecap="round"/>
<line x1="4" y1="-4" x2="33.138" y2="-4" transform="matrix(0.998634 -0.0522574 0.053059 0.998591 71.9209 152.11)" stroke="#75D2D8" stroke-width="8" stroke-linecap="round"/>
<line x1="4" y1="-4" x2="31.6655" y2="-4" transform="matrix(-0.0341468 -0.999417 0.999394 -0.0348153 95.0029 165.257)" stroke="#75D2D8" stroke-width="8" stroke-linecap="round"/>
<line x1="4" y1="-4" x2="25.0267" y2="-4" transform="matrix(0.696939 -0.71713 0.744725 0.667371 83.0262 160.806)" stroke="#75D2D8" stroke-width="8" stroke-linecap="round"/>
<line x1="4" y1="-4" x2="25.9431" y2="-4" transform="matrix(-0.744725 -0.667371 0.696939 -0.71713 104.44 154.87)" stroke="#75D2D8" stroke-width="8" stroke-linecap="round"/>
<rect x="16.3707" y="61.8867" width="136.629" height="39.3058" rx="19.6529" fill="#D5D5D5"/>
<ellipse cx="56.9325" cy="58.3135" rx="24.1947" ry="24.2981" fill="#D5D5D5"/>
<ellipse cx="84.6853" cy="43.3058" rx="24.1947" ry="24.2981" fill="#D5D5D5"/>
<ellipse cx="113.861" cy="58.3135" rx="24.1947" ry="24.2981" fill="#D5D5D5"/>
</g>
<defs>
<filter id="filter0_d_140_10" x="0" y="0" width="166" height="182.399" filterUnits="userSpaceOnUse" color-interpolation-filters="sRGB">
<feFlood flood-opacity="0" result="BackgroundImageFix"/>
<feColorMatrix in="SourceAlpha" type="matrix" values="0 0 0 0 0 0 0 0 0 0 0 0 0 0 0 0 0 0 127 0" result="hardAlpha"/>
<feOffset dy="4"/>
<feGaussianBlur stdDeviation="6.5"/>
<feComposite in2="hardAlpha" operator="out"/>
<feColorMatrix type="matrix" values="0 0 0 0 0 0 0 0 0 0 0 0 0 0 0 0 0 0 0.25 0"/>
<feBlend mode="normal" in2="BackgroundImageFix" result="effect1_dropShadow_140_10"/>
<feBlend mode="normal" in="SourceGraphic" in2="effect1_dropShadow_140_10" result="shape"/>
</filter>
</defs>
</svg>
