<svg width="153" height="141" viewBox="0 0 153 141" fill="none" xmlns="http://www.w3.org/2000/svg">
<circle cx="36" cy="25" r="25" fill="#68AACF"/>
<g filter="url(#filter0_d_140_80)">
<rect x="14.3707" y="52.8867" width="136.629" height="39.3058" rx="19.6529" fill="#D5D5D5"/>
<ellipse cx="54.9325" cy="49.3135" rx="24.1947" ry="24.2981" fill="#D5D5D5"/>
<ellipse cx="82.6853" cy="34.3058" rx="24.1947" ry="24.2981" fill="#D5D5D5"/>
<ellipse cx="111.861" cy="49.3135" rx="24.1947" ry="24.2981" fill="#D5D5D5"/>
</g>
<path d="M117.456 106L105 132.795" stroke="#5DA2E1" stroke-width="8" stroke-linecap="round"/>
<path d="M52.4559 106L40 132.795" stroke="#5DA2E1" stroke-width="8" stroke-linecap="round"/>
<path d="M74.5347 120.467L77.4481 121.72C77.4611 121.726 77.4742 121.732 77.4874 121.737C77.7028 121.83 77.9464 121.935 78.1419 122.052C78.3742 122.191 78.6647 122.419 78.8225 122.815C78.9804 123.211 78.9262 123.576 78.8533 123.837C78.7919 124.057 78.687 124.3 78.5943 124.516C78.5886 124.529 78.5829 124.542 78.5774 124.555L74.525 133.975C74.4235 134.211 74.3302 134.428 74.2452 134.627C74.4074 134.483 74.5833 134.326 74.7747 134.154L75.3968 134.848L74.7747 134.154L85.9797 124.107C87.2181 122.997 88.0602 122.238 88.5828 121.608C89.0943 120.992 89.1293 120.698 89.0965 120.497L74.5347 120.467ZM74.5347 120.467C73.0066 119.81 71.9665 119.359 71.2702 118.929M74.5347 120.467L71.2702 118.929M71.2702 118.929C70.5885 118.508 70.4618 118.241 70.4289 118.04M71.2702 118.929L70.4289 118.04M70.4289 118.04C70.3961 117.84 70.4309 117.546 70.9426 116.929C71.4653 116.299 72.3074 115.541 73.5459 114.43L84.7508 104.384C84.7508 104.384 84.7508 104.384 84.7508 104.384C84.9421 104.212 85.1181 104.054 85.2803 103.91C85.1953 104.11 85.102 104.327 85.0004 104.563L80.9481 113.983C80.9425 113.996 80.9369 114.009 80.9312 114.022C80.8384 114.237 80.7335 114.481 80.6721 114.7C80.5992 114.961 80.5451 115.326 80.7029 115.723C80.8608 116.119 81.1513 116.347 81.3835 116.486C81.579 116.603 81.8227 116.708 82.0381 116.8C82.0513 116.806 82.0644 116.812 82.0774 116.817L84.9908 118.071C86.5189 118.728 87.559 119.178 88.2553 119.609C88.9369 120.03 89.0637 120.297 89.0965 120.497L70.4289 118.04Z" fill="#FFC047" stroke="#4B4B4B" stroke-width="2"/>
<defs>
<filter id="filter0_d_140_80" x="0.370728" y="9.00769" width="152.629" height="98.1848" filterUnits="userSpaceOnUse" color-interpolation-filters="sRGB">
<feFlood flood-opacity="0" result="BackgroundImageFix"/>
<feColorMatrix in="SourceAlpha" type="matrix" values="0 0 0 0 0 0 0 0 0 0 0 0 0 0 0 0 0 0 127 0" result="hardAlpha"/>
<feOffset dx="-6" dy="7"/>
<feGaussianBlur stdDeviation="4"/>
<feComposite in2="hardAlpha" operator="out"/>
<feColorMatrix type="matrix" values="0 0 0 0 0 0 0 0 0 0 0 0 0 0 0 0 0 0 0.11 0"/>
<feBlend mode="normal" in2="BackgroundImageFix" result="effect1_dropShadow_140_80"/>
<feBlend mode="normal" in="SourceGraphic" in2="effect1_dropShadow_140_80" result="shape"/>
</filter>
</defs>
</svg>
