<svg width="206" height="139" viewBox="0 0 206 139" fill="none" xmlns="http://www.w3.org/2000/svg">
<path d="M30.4877 91L18 117.78" stroke="#5DA2E1" stroke-width="8" stroke-linecap="round"/>
<path d="M80.4559 107.41L68 134.205" stroke="#5DA2E1" stroke-width="8" stroke-linecap="round"/>
<path d="M185.456 107L173 133.795" stroke="#5DA2E1" stroke-width="8" stroke-linecap="round"/>
<path d="M58.4877 93L46 119.78" stroke="#5DA2E1" stroke-width="8" stroke-linecap="round"/>
<path d="M115.456 107L103 133.795" stroke="#5DA2E1" stroke-width="8" stroke-linecap="round"/>
<path d="M150.456 107L138 133.795" stroke="#5DA2E1" stroke-width="8" stroke-linecap="round"/>
<path d="M61.3018 95.2904L65.2169 96.3395C65.2324 96.3436 65.2479 96.3478 65.2635 96.352C65.5592 96.4311 65.8694 96.5141 66.1202 96.6188C66.4108 96.7401 66.7577 96.9432 66.9877 97.3414C67.2176 97.7396 67.22 98.1416 67.1797 98.454C67.145 98.7235 67.0618 99.0336 66.9824 99.3293C66.9782 99.3449 66.9741 99.3604 66.9699 99.3758L63.5781 112.034C63.3551 112.867 63.1776 113.531 63.0541 114.06C63.4155 113.655 63.8566 113.127 64.4088 112.465L65.1766 113.106L64.4088 112.465L76.7311 97.698C76.7311 97.698 76.7311 97.698 76.7311 97.698C78.0871 96.0729 79.0289 94.94 79.5872 94.0255C80.1366 93.1256 80.1748 92.6588 80.0602 92.2971C79.9457 91.9357 79.6458 91.5762 78.6784 91.1568C77.6953 90.7307 76.2729 90.3468 74.2283 89.799L70.3132 88.7499C70.2978 88.7458 70.2822 88.7416 70.2667 88.7375C69.971 88.6583 69.6608 88.5753 69.41 88.4706C69.1193 88.3493 68.7724 88.1462 68.5425 87.748C68.3126 87.3498 68.3101 86.9478 68.3504 86.6355C68.3852 86.3659 68.4684 86.0558 68.5477 85.7601C68.5519 85.7445 68.556 85.729 68.5602 85.7136L71.952 73.0551C72.1751 72.2227 72.3525 71.5581 72.476 71.0291C72.1146 71.4346 71.6735 71.9624 71.1214 72.6241C71.1214 72.6241 71.1214 72.6241 71.1214 72.6241M61.3018 95.2904L70.3536 71.9834L71.1214 72.6241M61.3018 95.2904C59.2573 94.7426 57.8348 94.3587 56.8517 93.9326M61.3018 95.2904L56.8517 93.9326M71.1214 72.6241L58.7992 87.3911M71.1214 72.6241L58.7992 87.3911M58.7992 87.3911C58.7992 87.3911 58.7992 87.3911 58.7992 87.3911C57.4431 89.0164 56.5012 90.1493 55.9429 91.0639C55.3934 91.9638 55.3553 92.4306 55.4698 92.7922M58.7992 87.3911L55.4698 92.7922M56.8517 93.9326C55.8843 93.5132 55.5844 93.1536 55.4698 92.7922M56.8517 93.9326L55.4698 92.7922" fill="#FFC047" stroke="#4B4B4B" stroke-width="2"/>
<path d="M125.302 107.29L129.217 108.339C129.232 108.344 129.248 108.348 129.263 108.352C129.559 108.431 129.869 108.514 130.12 108.619C130.411 108.74 130.758 108.943 130.988 109.341C131.218 109.74 131.22 110.142 131.18 110.454C131.145 110.723 131.062 111.034 130.982 111.329C130.978 111.345 130.974 111.36 130.97 111.376L127.578 124.034C127.355 124.867 127.178 125.531 127.054 126.06C127.416 125.655 127.857 125.127 128.409 124.465L129.177 125.106L128.409 124.465L140.731 109.698C140.731 109.698 140.731 109.698 140.731 109.698C142.087 108.073 143.029 106.94 143.587 106.026C144.137 105.126 144.175 104.659 144.06 104.297C143.946 103.936 143.646 103.576 142.678 103.157C141.695 102.731 140.273 102.347 138.228 101.799L134.313 100.75C134.298 100.746 134.282 100.742 134.267 100.737C133.971 100.658 133.661 100.575 133.41 100.471C133.119 100.349 132.772 100.146 132.542 99.748C132.313 99.3498 132.31 98.9478 132.35 98.6355C132.385 98.3659 132.468 98.0558 132.548 97.7601C132.552 97.7445 132.556 97.729 132.56 97.7136L135.952 85.0551C136.175 84.2227 136.353 83.5581 136.476 83.0291C136.115 83.4346 135.673 83.9624 135.121 84.6241C135.121 84.6241 135.121 84.6241 135.121 84.6241M125.302 107.29L134.354 83.9834L135.121 84.6241M125.302 107.29C123.257 106.743 121.835 106.359 120.852 105.933M125.302 107.29L120.852 105.933M135.121 84.6241L122.799 99.3911M135.121 84.6241L122.799 99.3911M122.799 99.3911C122.799 99.3911 122.799 99.3911 122.799 99.3911C121.443 101.016 120.501 102.149 119.943 103.064C119.393 103.964 119.355 104.431 119.47 104.792M122.799 99.3911L119.47 104.792M120.852 105.933C119.884 105.513 119.584 105.154 119.47 104.792M120.852 105.933L119.47 104.792" fill="#FFC047" stroke="#4B4B4B" stroke-width="2"/>
<g filter="url(#filter0_d_140_138)">
<rect x="14" y="43.879" width="136.629" height="39.3058" rx="19.6529" fill="#B8B8B8"/>
<ellipse cx="54.5618" cy="40.3058" rx="24.1947" ry="24.2981" fill="#B8B8B8"/>
<ellipse cx="82.3146" cy="25.2981" rx="24.1947" ry="24.2981" fill="#B8B8B8"/>
<ellipse cx="111.491" cy="40.3058" rx="24.1947" ry="24.2981" fill="#B8B8B8"/>
<rect x="67.3707" y="58.8867" width="136.629" height="39.3058" rx="19.6529" fill="#D5D5D5"/>
<ellipse cx="107.933" cy="55.3135" rx="24.1947" ry="24.2981" fill="#D5D5D5"/>
<ellipse cx="135.685" cy="40.3058" rx="24.1947" ry="24.2981" fill="#D5D5D5"/>
<ellipse cx="164.861" cy="55.3135" rx="24.1947" ry="24.2981" fill="#D5D5D5"/>
</g>
<defs>
<filter id="filter0_d_140_138" x="0" y="0" width="206" height="113.193" filterUnits="userSpaceOnUse" color-interpolation-filters="sRGB">
<feFlood flood-opacity="0" result="BackgroundImageFix"/>
<feColorMatrix in="SourceAlpha" type="matrix" values="0 0 0 0 0 0 0 0 0 0 0 0 0 0 0 0 0 0 127 0" result="hardAlpha"/>
<feOffset dx="-6" dy="7"/>
<feGaussianBlur stdDeviation="4"/>
<feComposite in2="hardAlpha" operator="out"/>
<feColorMatrix type="matrix" values="0 0 0 0 0 0 0 0 0 0 0 0 0 0 0 0 0 0 0.11 0"/>
<feBlend mode="normal" in2="BackgroundImageFix" result="effect1_dropShadow_140_138"/>
<feBlend mode="normal" in="SourceGraphic" in2="effect1_dropShadow_140_138" result="shape"/>
</filter>
</defs>
</svg>
