<svg width="153" height="136" viewBox="0 0 153 136" fill="none" xmlns="http://www.w3.org/2000/svg">
<path d="M120.456 101L108 127.795" stroke="#5DA2E1" stroke-width="8" stroke-linecap="round"/>
<path d="M55.4559 101L43 127.795" stroke="#5DA2E1" stroke-width="8" stroke-linecap="round"/>
<path d="M77.5347 115.467L80.4481 116.72C80.4611 116.726 80.4742 116.732 80.4874 116.737C80.7028 116.83 80.9464 116.935 81.1419 117.052C81.3742 117.191 81.6647 117.419 81.8225 117.815C81.9804 118.211 81.9262 118.576 81.8533 118.837C81.7919 119.057 81.687 119.3 81.5943 119.516C81.5886 119.529 81.5829 119.542 81.5774 119.555L77.525 128.975C77.4235 129.211 77.3302 129.428 77.2452 129.627C77.4074 129.483 77.5833 129.326 77.7747 129.154L78.3968 129.848L77.7747 129.154L88.9797 119.107C90.2181 117.997 91.0602 117.238 91.5828 116.608C92.0943 115.992 92.1293 115.698 92.0965 115.497L77.5347 115.467ZM77.5347 115.467C76.0066 114.81 74.9665 114.359 74.2702 113.929M77.5347 115.467L74.2702 113.929M74.2702 113.929C73.5885 113.508 73.4618 113.241 73.4289 113.04M74.2702 113.929L73.4289 113.04M73.4289 113.04C73.3961 112.84 73.4309 112.546 73.9426 111.929C74.4653 111.299 75.3074 110.541 76.5459 109.43L87.7508 99.3837C87.7508 99.3837 87.7508 99.3837 87.7508 99.3837C87.9421 99.2121 88.1181 99.0544 88.2803 98.9102C88.1953 99.1099 88.102 99.327 88.0004 99.5631L83.9481 108.983C83.9425 108.996 83.9369 109.009 83.9312 109.022C83.8384 109.237 83.7335 109.481 83.6721 109.7C83.5992 109.961 83.5451 110.326 83.7029 110.723C83.8608 111.119 84.1513 111.347 84.3835 111.486C84.579 111.603 84.8227 111.708 85.0381 111.8C85.0513 111.806 85.0644 111.812 85.0774 111.817L87.9908 113.071C89.5189 113.728 90.559 114.178 91.2553 114.609C91.9369 115.03 92.0637 115.297 92.0965 115.497L73.4289 113.04Z" fill="#FFC047" stroke="#4B4B4B" stroke-width="2"/>
<circle cx="36" cy="25" r="25" fill="#FFC047"/>
<g filter="url(#filter0_d_140_109)">
<rect x="14.3707" y="52.8867" width="136.629" height="39.3058" rx="19.6529" fill="#D5D5D5"/>
<ellipse cx="54.9325" cy="49.3135" rx="24.1947" ry="24.2981" fill="#D5D5D5"/>
<ellipse cx="82.6853" cy="34.3058" rx="24.1947" ry="24.2981" fill="#D5D5D5"/>
<ellipse cx="111.861" cy="49.3135" rx="24.1947" ry="24.2981" fill="#D5D5D5"/>
</g>
<defs>
<filter id="filter0_d_140_109" x="0.370728" y="9.00769" width="152.629" height="98.1848" filterUnits="userSpaceOnUse" color-interpolation-filters="sRGB">
<feFlood flood-opacity="0" result="BackgroundImageFix"/>
<feColorMatrix in="SourceAlpha" type="matrix" values="0 0 0 0 0 0 0 0 0 0 0 0 0 0 0 0 0 0 127 0" result="hardAlpha"/>
<feOffset dx="-6" dy="7"/>
<feGaussianBlur stdDeviation="4"/>
<feComposite in2="hardAlpha" operator="out"/>
<feColorMatrix type="matrix" values="0 0 0 0 0 0 0 0 0 0 0 0 0 0 0 0 0 0 0.11 0"/>
<feBlend mode="normal" in2="BackgroundImageFix" result="effect1_dropShadow_140_109"/>
<feBlend mode="normal" in="SourceGraphic" in2="effect1_dropShadow_140_109" result="shape"/>
</filter>
</defs>
</svg>
