<svg width="206" height="148" viewBox="0 0 206 148" fill="none" xmlns="http://www.w3.org/2000/svg">
<g filter="url(#filter0_d_141_36)">
<rect x="14" y="43.8792" width="136.629" height="39.3058" rx="19.6529" fill="#B8B8B8"/>
<ellipse cx="54.5618" cy="40.3057" rx="24.1947" ry="24.2981" fill="#B8B8B8"/>
<ellipse cx="82.3146" cy="25.2981" rx="24.1947" ry="24.2981" fill="#B8B8B8"/>
<ellipse cx="111.491" cy="40.3057" rx="24.1947" ry="24.2981" fill="#B8B8B8"/>
<rect x="67.3707" y="58.8867" width="136.629" height="39.3058" rx="19.6529" fill="#D5D5D5"/>
<ellipse cx="107.933" cy="55.3135" rx="24.1947" ry="24.2981" fill="#D5D5D5"/>
<ellipse cx="135.685" cy="40.3057" rx="24.1947" ry="24.2981" fill="#D5D5D5"/>
<ellipse cx="164.861" cy="55.3135" rx="24.1947" ry="24.2981" fill="#D5D5D5"/>
</g>
<path d="M132.12 106C127.989 106 124.629 109.36 124.629 113.491H129.124C129.124 111.839 130.468 110.494 132.12 110.494C133.772 110.494 135.116 111.839 135.116 113.491C135.116 115.143 133.772 116.487 132.12 116.487H69V120.981H132.12C136.25 120.981 139.61 117.621 139.61 113.491C139.61 109.36 136.25 106 132.12 106Z" fill="#949393" stroke="#949393" stroke-width="0.000666667"/>
<path d="M150.846 107.498C146.303 107.498 142.607 111.195 142.607 115.738C142.607 119.042 145.295 121.73 148.599 121.73C151.903 121.73 154.592 119.042 154.592 115.738H150.097C150.097 116.564 149.425 117.236 148.599 117.236C147.773 117.236 147.101 116.564 147.101 115.738C147.101 113.673 148.781 111.993 150.846 111.993C154.15 111.993 156.839 114.681 156.839 117.985C156.839 121.289 154.15 123.978 150.846 123.978H54V128.472H150.846C156.629 128.472 161.333 123.768 161.333 117.985C161.333 112.203 156.629 107.498 150.846 107.498Z" fill="#949393" stroke="#949393" stroke-width="0.000666667"/>
<path d="M139.61 131.468H65V135.963H139.61C141.676 135.963 143.356 137.643 143.356 139.708C143.356 141.773 141.675 143.453 139.61 143.453C137.545 143.453 135.865 141.773 135.865 139.708H131.371C131.371 144.251 135.067 147.948 139.61 147.948C144.154 147.948 147.85 144.251 147.85 139.708C147.85 135.165 144.154 131.468 139.61 131.468Z" fill="#949393" stroke="#949393" stroke-width="0.000666667"/>
<defs>
<filter id="filter0_d_141_36" x="0" y="0" width="206" height="113.193" filterUnits="userSpaceOnUse" color-interpolation-filters="sRGB">
<feFlood flood-opacity="0" result="BackgroundImageFix"/>
<feColorMatrix in="SourceAlpha" type="matrix" values="0 0 0 0 0 0 0 0 0 0 0 0 0 0 0 0 0 0 127 0" result="hardAlpha"/>
<feOffset dx="-6" dy="7"/>
<feGaussianBlur stdDeviation="4"/>
<feComposite in2="hardAlpha" operator="out"/>
<feColorMatrix type="matrix" values="0 0 0 0 0 0 0 0 0 0 0 0 0 0 0 0 0 0 0.11 0"/>
<feBlend mode="normal" in2="BackgroundImageFix" result="effect1_dropShadow_141_36"/>
<feBlend mode="normal" in="SourceGraphic" in2="effect1_dropShadow_141_36" result="shape"/>
</filter>
</defs>
</svg>
