<svg width="23" height="23" viewBox="0 0 23 23" fill="none" xmlns="http://www.w3.org/2000/svg">
<g id="Location SVG" clip-path="url(#clip0_18_11)">
<g id="SVGRepo_iconCarrier">
<path id="Vector" d="M3.2933 10.3058C2.72276 10.0839 2.43749 9.97296 2.35421 9.81311C2.28201 9.67453 2.28191 9.50945 2.35395 9.3708C2.43705 9.21084 2.72218 9.09957 3.29246 8.87702L19.4765 2.56127C19.9913 2.36038 20.2488 2.25994 20.4132 2.31488C20.5561 2.3626 20.6681 2.47469 20.7158 2.61753C20.7709 2.78201 20.6704 3.0394 20.4695 3.5542L14.1538 19.7383C13.9312 20.3086 13.8199 20.5937 13.6599 20.6768C13.5213 20.7488 13.3562 20.7487 13.2177 20.6766C13.0578 20.5933 12.9468 20.308 12.725 19.7374L10.2064 13.261C10.1613 13.1452 10.1388 13.0873 10.104 13.0386C10.0732 12.9953 10.0354 12.9575 9.99219 12.9267C9.94341 12.8919 9.88553 12.8694 9.76976 12.8244L3.2933 10.3058Z" fill="#4D4D4D" stroke="#4D4D4D" stroke-width="3" stroke-linecap="round" stroke-linejoin="round"/>
</g>
</g>
<defs>
<clipPath id="clip0_18_11">
<rect width="23" height="23" fill="white"/>
</clipPath>
</defs>
</svg>
