<svg width="15" height="15" viewBox="0 0 15 15" fill="none" xmlns="http://www.w3.org/2000/svg">
<g id="reload-svgrepo-com 1">
<path id="Vector" fill-rule="evenodd" clip-rule="evenodd" d="M8.56694 0.808057C8.811 1.05214 8.811 1.44786 8.56694 1.69194L7.75331 2.5056C10.7423 2.63806 13.125 5.10328 13.125 8.125C13.125 11.2316 10.6066 13.75 7.5 13.75C4.3934 13.75 1.875 11.2316 1.875 8.125C1.875 7.77981 2.15482 7.5 2.5 7.5C2.84518 7.5 3.125 7.77981 3.125 8.125C3.125 10.5413 5.08376 12.5 7.5 12.5C9.91625 12.5 11.875 10.5413 11.875 8.125C11.875 5.79838 10.0589 3.89593 7.76688 3.75801L8.56694 4.55806C8.811 4.80214 8.811 5.19786 8.56694 5.44194C8.32287 5.68602 7.92713 5.68602 7.68306 5.44194L5.80806 3.56694C5.69085 3.44973 5.625 3.29076 5.625 3.125C5.625 2.95924 5.69085 2.80027 5.80806 2.68306L7.68306 0.808057C7.92713 0.563981 8.32287 0.563981 8.56694 0.808057Z" fill="#4D4D4D"/>
</g>
</svg>
