<svg width="26" height="26" viewBox="0 0 26 26" fill="none" xmlns="http://www.w3.org/2000/svg">
<g id="settings-svgrepo-com 1">
<path id="Vector" fill-rule="evenodd" clip-rule="evenodd" d="M15.4687 2.33158C15.0675 2.16666 14.5589 2.16666 13.5417 2.16666C12.5244 2.16666 12.0158 2.16666 11.6146 2.33158C11.0797 2.55149 10.6547 2.97328 10.4331 3.50417C10.332 3.74652 10.2924 4.02836 10.2769 4.43948C10.2541 5.04364 9.94192 5.60287 9.41435 5.90516C8.88678 6.20745 8.24269 6.19616 7.70411 5.91365C7.33761 5.7214 7.07188 5.61449 6.80982 5.58026C6.23576 5.50525 5.65519 5.65964 5.19584 6.00946C4.85132 6.27182 4.597 6.70896 4.08839 7.58325C3.57978 8.45754 3.32547 8.89468 3.26879 9.32198C3.19321 9.89169 3.34878 10.4679 3.70126 10.9238C3.86215 11.1319 4.08825 11.3067 4.43917 11.5256C4.95507 11.8473 5.28701 12.3954 5.28698 13C5.28695 13.6046 4.95501 14.1525 4.43917 14.4742C4.08819 14.6931 3.86205 14.8681 3.70115 15.0762C3.34867 15.5321 3.19311 16.1082 3.26869 16.6779C3.32537 17.1052 3.57968 17.5424 4.08828 18.4167C4.59689 19.2909 4.85121 19.7281 5.19573 19.9904C5.65508 20.3402 6.23565 20.4946 6.80971 20.4196C7.07176 20.3854 7.33747 20.2785 7.70394 20.0863C8.24256 19.8038 8.88669 19.7925 9.41429 20.0947C9.9419 20.3971 10.2541 20.9563 10.2769 21.5606C10.2924 21.9716 10.332 22.2535 10.4331 22.4958C10.6547 23.0267 11.0797 23.4485 11.6146 23.6684C12.0158 23.8333 12.5244 23.8333 13.5417 23.8333C14.5589 23.8333 15.0675 23.8333 15.4687 23.6684C16.0036 23.4485 16.4286 23.0267 16.6502 22.4958C16.7514 22.2535 16.791 21.9716 16.8065 21.5605C16.8293 20.9563 17.1414 20.3971 17.6689 20.0947C18.1965 19.7924 18.8407 19.8038 19.3793 20.0863C19.7458 20.2785 20.0114 20.3853 20.2735 20.4195C20.8476 20.4946 21.4281 20.3402 21.8874 19.9904C22.2321 19.728 22.4863 19.2909 22.9949 18.4165C23.5036 17.5423 23.7578 17.1052 23.8146 16.6779C23.8901 16.1082 23.7345 15.532 23.3821 15.0761C23.2211 14.868 22.995 14.693 22.644 14.4742C22.1283 14.1525 21.7963 13.6045 21.7963 12.9999C21.7963 12.3953 22.1283 11.8474 22.644 11.5258C22.9952 11.3068 23.2212 11.132 23.3822 10.9238C23.7346 10.4679 23.8902 9.89177 23.8147 9.32204C23.7579 8.89475 23.5037 8.45761 22.995 7.58332C22.4864 6.70904 22.2322 6.27189 21.8876 6.00953C21.4282 5.65971 20.8477 5.50533 20.2736 5.58034C20.0115 5.61457 19.7458 5.72146 19.3794 5.91369C18.8408 6.19621 18.1966 6.20751 17.6691 5.9052C17.1415 5.60289 16.8293 5.04362 16.8064 4.43942C16.7909 4.02834 16.7514 3.74651 16.6502 3.50417C16.4286 2.97328 16.0036 2.55149 15.4687 2.33158ZM13.5417 16.25C15.3503 16.25 16.8164 14.795 16.8164 13C16.8164 11.205 15.3503 9.74999 13.5417 9.74999C11.733 9.74999 10.2669 11.205 10.2669 13C10.2669 14.795 11.733 16.25 13.5417 16.25Z" fill="#4D4D4D"/>
</g>
</svg>
